<svg width="223" height="233" viewBox="0 0 223 233" fill="none" xmlns="http://www.w3.org/2000/svg">
<path fill-rule="evenodd" clip-rule="evenodd" d="M111.5 212.581C161.848 212.581 202.662 171.766 202.662 121.418C202.662 71.0703 161.848 30.2555 111.5 30.2555C61.1522 30.2555 20.3374 71.0703 20.3374 121.418C20.3374 171.766 61.1522 212.581 111.5 212.581Z" stroke="white" stroke-width="0.613889" stroke-dasharray="3.68 3.68"/>
<path fill-rule="evenodd" clip-rule="evenodd" d="M111.5 231.918C172.527 231.918 222 182.445 222 121.418C222 60.3905 172.527 10.918 111.5 10.918C50.4725 10.918 1 60.3905 1 121.418C1 182.445 50.4725 231.918 111.5 231.918Z" stroke="white" stroke-width="0.613889" stroke-dasharray="3.68 3.68"/>
<path d="M185.455 156.621C185.458 143.756 175.67 133.002 162.862 131.798C150.053 130.593 138.432 139.334 136.037 151.974L59.4268 149.896L60.2678 163.058C60.2678 163.058 49.3436 188.264 106.758 194.98V220.457H173.131V178.098C180.758 173.632 185.448 165.46 185.455 156.621Z" fill="url(#paint0_linear_1_1853)"/>
<path d="M62.8985 163.611C62.8985 163.611 52.4378 187.749 107.421 194.188V218.597H170.986V153.957L62.082 151.004L62.8985 163.611Z" fill="#BE7C5E"/>
<path d="M94.6671 62.8806C91.2168 68.3252 84.017 69.9613 78.5526 66.5424L44.4234 44.0526C38.9788 40.6023 37.3427 33.4025 40.7616 27.938C44.2114 22.5009 51.4019 20.8657 56.8639 24.2762L90.993 46.766C96.442 50.2124 98.0837 57.4129 94.6671 62.8806Z" fill="url(#paint1_linear_1_1853)"/>
<path d="M92.7764 61.6528C89.5692 66.7137 82.877 68.2346 77.7975 65.0569L46.0625 44.1355C41.0016 40.9283 39.4808 34.2361 42.6585 29.1566C45.8657 24.0957 52.5579 22.5749 57.6374 25.7526L89.3662 46.6617C94.4368 49.8673 95.9613 56.5692 92.7764 61.6528Z" fill="#BE7C5E"/>
<path d="M158.92 181.315C172.104 181.315 182.791 170.628 182.791 157.444C182.791 144.26 172.104 133.573 158.92 133.573C145.736 133.573 135.049 144.26 135.049 157.444C135.049 170.628 145.736 181.315 158.92 181.315Z" fill="#BE7C5E"/>
<path d="M154.623 0H63.1778C61.1012 0 59.4177 1.68344 59.4177 3.76007V174.869C59.4177 176.946 61.1012 178.629 63.1778 178.629H154.623C156.699 178.629 158.383 176.946 158.383 174.869V3.76007C158.383 1.68344 156.699 0 154.623 0Z" fill="url(#paint2_linear_1_1853)"/>
<path d="M152.855 2.41565H64.9397C62.6274 2.41565 60.7529 4.29011 60.7529 6.60237V172.033C60.7529 174.345 62.6274 176.22 64.9397 176.22H152.855C155.167 176.22 157.041 174.345 157.041 172.033V6.60237C157.041 4.29011 155.167 2.41565 152.855 2.41565Z" fill="white"/>
<path d="M133.087 6.77429C132.512 10.5829 129.244 13.4022 125.392 13.4135H92.1379C88.2872 13.4007 85.0212 10.5817 84.4458 6.77429H66.8272C65.8572 6.77429 64.9265 7.15827 64.2403 7.84394C63.554 8.52961 63.1685 9.45992 63.1685 10.43V168.199C63.1685 169.17 63.5524 170.1 64.2381 170.786C64.9238 171.473 65.8541 171.858 66.8242 171.858H150.97C151.94 171.858 152.871 171.474 153.557 170.789C154.243 170.103 154.629 169.173 154.629 168.203V10.4331C154.629 9.46299 154.245 8.53235 153.559 7.84611C152.873 7.15987 151.943 6.77429 150.973 6.77429H133.087Z" fill="#2F56F8"/>
<path d="M119.149 8.85229H98.9183C98.5793 8.85229 98.3044 9.12714 98.3044 9.46618V9.57975C98.3044 9.91879 98.5793 10.1936 98.9183 10.1936H119.149C119.488 10.1936 119.763 9.91879 119.763 9.57975V9.46618C119.763 9.12714 119.488 8.85229 119.149 8.85229Z" fill="#DBDBDB"/>
<path d="M124.321 10.3894C124.873 10.3894 125.321 9.94169 125.321 9.3894C125.321 8.83712 124.873 8.3894 124.321 8.3894C123.769 8.3894 123.321 8.83712 123.321 9.3894C123.321 9.94169 123.769 10.3894 124.321 10.3894Z" fill="#DBDBDB"/>
<path d="M174.35 161.655C167.422 163.258 162.668 158.739 161.065 151.815L145.147 92.7065C143.563 85.7549 147.89 78.8289 154.831 77.2027C161.783 75.6189 168.709 79.9451 170.335 86.8868L183.325 147.521C184.927 154.448 181.275 160.053 174.35 161.655Z" fill="url(#paint3_linear_1_1853)"/>
<path d="M168.549 88.3337C167.198 82.4883 161.365 78.8446 155.52 80.1952C149.674 81.5458 146.031 87.3792 147.381 93.2245L162.019 156.576C163.369 162.421 169.203 166.065 175.048 164.714C180.893 163.363 184.537 157.53 183.186 151.685L168.549 88.3337Z" fill="#BE7C5E"/>
<path d="M182.69 210.61H91.834V231.789H182.69V210.61Z" fill="url(#paint4_linear_1_1853)"/>
<path d="M180.234 213.065H94.2896V229.64H180.234V213.065Z" fill="#4D8AF0"/>
<path d="M81.4195 126.289C78.011 131.669 70.8974 133.286 65.4983 129.908L42.6094 115.098C37.2295 111.69 35.6126 104.576 38.9906 99.1768C42.399 93.7969 49.5126 92.18 54.9118 95.5579L77.8006 110.368C83.1805 113.776 84.7975 120.89 81.4195 126.289Z" fill="url(#paint5_linear_1_1853)"/>
<path d="M75.6733 157.637C72.2345 163.067 65.0561 164.699 59.6079 161.29L45.4301 150.952C40.0008 147.513 38.3687 140.335 41.7775 134.887C45.2163 129.457 52.3947 127.825 57.8429 131.234L72.0207 141.575C77.4481 145.014 79.08 152.19 75.6733 157.637Z" fill="url(#paint6_linear_1_1853)"/>
<g opacity="0.5">
<path opacity="0.5" d="M108.897 116.924C124.144 116.924 136.504 104.564 136.504 89.3178C136.504 74.0711 124.144 61.7112 108.897 61.7112C93.6504 61.7112 81.2905 74.0711 81.2905 89.3178C81.2905 104.564 93.6504 116.924 108.897 116.924Z" fill="url(#paint7_linear_1_1853)"/>
</g>
<path d="M108.897 115.301C123.247 115.301 134.88 103.668 134.88 89.3178C134.88 74.9679 123.247 63.335 108.897 63.335C94.5472 63.335 82.9143 74.9679 82.9143 89.3178C82.9143 103.668 94.5472 115.301 108.897 115.301Z" fill="#69F0AE"/>
<path d="M97.62 85.8493L107.362 94.7814L121.166 74.4832L126.04 78.544L107.362 102.903L93.5591 87.4761L97.62 85.8493Z" fill="white"/>
<path d="M74.5285 156.867C71.3213 161.928 64.6291 163.449 59.5496 160.271L46.3264 150.645C41.2655 147.438 39.7447 140.746 42.9224 135.666C46.1296 130.606 52.8218 129.085 57.9013 132.262L71.1214 141.907C76.1722 145.112 77.6931 151.791 74.5285 156.867Z" fill="#BE7C5E"/>
<path d="M80.1609 125.476C76.9536 130.537 70.2614 132.058 65.182 128.88L43.6467 114.945C38.5858 111.737 37.065 105.045 40.2427 99.9657C43.4499 94.9048 50.1422 93.384 55.2216 96.5617L76.7568 110.497C81.8177 113.704 83.3386 120.396 80.1609 125.476Z" fill="#BE7C5E"/>
<path d="M87.3374 95.0883C83.9122 100.492 76.7665 102.115 71.3426 98.7225L42.3363 79.8362C36.9328 76.4109 35.3092 69.2652 38.7021 63.8413C42.1274 58.4378 49.2731 56.8142 54.697 60.2071L83.7032 79.0934C89.1067 82.5187 90.7303 89.6644 87.3374 95.0883Z" fill="url(#paint8_linear_1_1853)"/>
<path d="M85.7965 94.1061C82.5892 99.167 75.897 100.688 70.8176 97.5101L43.6499 79.8209C38.589 76.6137 37.0682 69.9215 40.2459 64.842C43.4531 59.7812 50.1453 58.2603 55.2248 61.438L82.3894 79.1272C87.4513 82.3334 88.9736 89.0259 85.7965 94.1061Z" fill="#BE7C5E"/>
<defs>
<linearGradient id="paint0_linear_1_1853" x1="122.446" y1="220.472" x2="122.446" y2="131.691" gradientUnits="userSpaceOnUse">
<stop stop-color="#808080" stop-opacity="0.25"/>
<stop offset="0.54" stop-color="#808080" stop-opacity="0.12"/>
<stop offset="1" stop-color="#808080" stop-opacity="0.1"/>
</linearGradient>
<linearGradient id="paint1_linear_1_1853" x1="67.7113" y1="68.3319" x2="67.7113" y2="22.4929" gradientUnits="userSpaceOnUse">
<stop stop-color="#808080" stop-opacity="0.25"/>
<stop offset="0.54" stop-color="#808080" stop-opacity="0.12"/>
<stop offset="1" stop-color="#808080" stop-opacity="0.1"/>
</linearGradient>
<linearGradient id="paint2_linear_1_1853" x1="108.9" y1="178.626" x2="108.9" y2="-0.00306638" gradientUnits="userSpaceOnUse">
<stop stop-color="#808080" stop-opacity="0.25"/>
<stop offset="0.54" stop-color="#808080" stop-opacity="0.12"/>
<stop offset="1" stop-color="#808080" stop-opacity="0.1"/>
</linearGradient>
<linearGradient id="paint3_linear_1_1853" x1="164.258" y1="161.975" x2="164.258" y2="76.8712" gradientUnits="userSpaceOnUse">
<stop stop-color="#808080" stop-opacity="0.25"/>
<stop offset="0.54" stop-color="#808080" stop-opacity="0.12"/>
<stop offset="1" stop-color="#808080" stop-opacity="0.1"/>
</linearGradient>
<linearGradient id="paint4_linear_1_1853" x1="137.268" y1="231.783" x2="137.268" y2="210.604" gradientUnits="userSpaceOnUse">
<stop stop-color="#808080" stop-opacity="0.25"/>
<stop offset="0.54" stop-color="#808080" stop-opacity="0.12"/>
<stop offset="1" stop-color="#808080" stop-opacity="0.1"/>
</linearGradient>
<linearGradient id="paint5_linear_1_1853" x1="60.2004" y1="131.673" x2="60.2004" y2="93.7961" gradientUnits="userSpaceOnUse">
<stop stop-color="#808080" stop-opacity="0.25"/>
<stop offset="0.54" stop-color="#808080" stop-opacity="0.12"/>
<stop offset="1" stop-color="#808080" stop-opacity="0.1"/>
</linearGradient>
<linearGradient id="paint6_linear_1_1853" x1="58.7269" y1="163.07" x2="58.7269" y2="129.451" gradientUnits="userSpaceOnUse">
<stop stop-color="#808080" stop-opacity="0.25"/>
<stop offset="0.54" stop-color="#808080" stop-opacity="0.12"/>
<stop offset="1" stop-color="#808080" stop-opacity="0.1"/>
</linearGradient>
<linearGradient id="paint7_linear_1_1853" x1="108.897" y1="116.924" x2="108.897" y2="61.7081" gradientUnits="userSpaceOnUse">
<stop stop-color="#808080" stop-opacity="0.25"/>
<stop offset="0.54" stop-color="#808080" stop-opacity="0.12"/>
<stop offset="1" stop-color="#808080" stop-opacity="0.1"/>
</linearGradient>
<linearGradient id="paint8_linear_1_1853" x1="63.0182" y1="100.506" x2="63.0182" y2="58.4452" gradientUnits="userSpaceOnUse">
<stop stop-color="#808080" stop-opacity="0.25"/>
<stop offset="0.54" stop-color="#808080" stop-opacity="0.12"/>
<stop offset="1" stop-color="#808080" stop-opacity="0.1"/>
</linearGradient>
</defs>
</svg>
